<?xml version="1.0" standalone="yes"?>
<svg xmlns="http://www.w3.org/2000/svg" width="800" height="800">
<path style="fill:#010101; stroke:none;" d="M0 0L0 373L1 373C1 328.228 15.1759 280.63 33.1397 240C79.8594 134.33 170.588 52.3198 281 17.8087C310.531 8.57819 342.931 1 374 1L340 0L264 0L0 0z"/>
<path style="fill:#077d83; stroke:none;" d="M374 0.424377C348.077 3.82812 322.451 6.20081 297 12.8843C237.729 28.449 182.277 58.1747 136 98.2824C98.0682 131.157 66.1992 172.108 43.7531 217C20.9885 262.529 6.00887 311.184 1.16975 362C-13.2146 513.051 61.8495 663.892 192 742.399C227.107 763.576 265.059 779.634 305 789.116C353.949 800.736 405.143 803.434 455 796.718C641.13 771.644 791.706 610.522 799.961 422C802.985 352.927 789.76 283.059 758.73 221C702.816 109.172 593.69 26.407 470 5.91974C439.194 0.8172 405.222 -3.67517 374 0.424377z"/>
<path style="fill:#010101; stroke:none;" d="M426 0L426 1C463.143 1 502.379 11.0425 537 23.9498C646.006 64.5885 734.284 150.653 775.05 260C788.195 295.258 799 335.137 799 373L800 373L800 0L426 0z"/>
<path style="fill:#0101ff; stroke:none;" d="M352 2L353 3L352 2M447 2L448 3L447 2z"/>
<path style="fill:#056468; stroke:none;" d="M344 3L345 4L344 3M455 3L456 4L455 3M338 4L339 5L338 4M461 4L462 5L461 4M332 5L333 6L332 5M467 5L468 6L467 5M326 6L327 7L326 6M473 6L474 7L473 6z"/>
<path style="fill:#0101ff; stroke:none;" d="M488 9L489 10L488 9z"/>
<path style="fill:#056468; stroke:none;" d="M307 10L308 11L307 10z"/>
<path style="fill:#0101ff; stroke:none;" d="M284 16L285 17L284 16z"/>
<path style="fill:#056468; stroke:none;" d="M524 19L525 20L524 19M527 20L528 21L527 20M263 23L264 24L263 23M252 27L253 28L252 27z"/>
<path style="fill:#0101ff; stroke:none;" d="M549 28L550 29L549 28M595 50L596 51L595 50z"/>
<path style="fill:#056468; stroke:none;" d="M602 54L603 55L602 54M607 57L608 58L607 57z"/>
<path style="fill:#0101ff; stroke:none;" d="M615 62L616 63L615 62z"/>
<path style="fill:#056468; stroke:none;" d="M181 64L182 65L181 64M172 70L173 71L172 70M627 70L628 71L627 70z"/>
<path style="fill:#0101ff; stroke:none;" d="M637 77L638 78L637 77M641 80L642 81L641 80z"/>
<path style="fill:#056468; stroke:none;" d="M149 87L150 88L149 87M650 87L651 88L650 87M144 91L145 92L144 91M655 91L656 92L655 91z"/>
<path style="fill:#0101ff; stroke:none;" d="M130 103L131 104L130 103M670 104L671 105L670 104z"/>
<path style="fill:#056468; stroke:none;" d="M127 106L128 107L127 106M672 106L673 107L672 106M126 107L127 108L126 107M673 107L674 108L673 107M108 125L109 126L108 125M691 125L692 126L691 125z"/>
<path style="fill:#0101ff; stroke:none;" d="M692 126L693 127L692 126z"/>
<path style="fill:#056468; stroke:none;" d="M98 136L99 137L98 136z"/>
<path style="fill:#010101; stroke:none;" d="M415 143.424C390.265 146.682 367.912 152.428 345 162.424C329.49 169.191 315.087 179.178 302 189.804C268.557 216.958 243.727 256.881 234.424 299C228.505 325.8 229 352.724 229 380L229 476L229 582C229 597.994 225.788 618.354 233.493 633C247.536 659.695 282.651 660.604 309 655.539C354.303 646.832 342 584.175 342 551L342 376C342 333.6 343.732 293.098 384 268.066C444.95 230.175 523.07 284.56 513.711 354C510.137 380.522 493.175 404.067 470 417.124C457.425 424.209 439.428 424.075 431.916 438C427.837 445.562 429 454.718 429 463C429 483.144 420.452 526.39 443 536.811C461.387 545.309 491.381 530.443 508 522.514C575.414 490.35 622.465 417.263 620.985 342C619.232 252.893 558.47 171.5 471 149.627C453.661 145.291 432.89 141.068 415 143.424z"/>
<path style="fill:#056468; stroke:none;" d="M707 143L708 144L707 143z"/>
<path style="fill:#0101ff; stroke:none;" d="M91 144L92 145L91 144M708 144L709 145L708 144z"/>
<path style="fill:#056468; stroke:none;" d="M466 148L467 149L466 148M80 158L81 159L80 158M497 158L498 159L497 158M349 160L350 161L349 160z"/>
<path style="fill:#0101ff; stroke:none;" d="M347 161L348 162L347 161M519 169L520 170L519 169z"/>
<path style="fill:#056468; stroke:none;" d="M323 174L324 175L323 174z"/>
<path style="fill:#0101ff; stroke:none;" d="M529 175L530 176L529 175z"/>
<path style="fill:#056468; stroke:none;" d="M535 179L536 180L535 179M306 186L307 187L306 186M547 188L548 189L547 188M54 197L55 198L54 197M745 197L746 198L745 197M291 199L292 200L291 199z"/>
<path style="fill:#0101ff; stroke:none;" d="M288 202L289 203L288 202M287 203L288 204L287 203z"/>
<path style="fill:#056468; stroke:none;" d="M563 203L564 204L563 203z"/>
<path style="fill:#0101ff; stroke:none;" d="M50 204L51 205L50 204z"/>
<path style="fill:#056468; stroke:none;" d="M564 204L565 205L564 204M565 205L566 206L565 205M284 206L285 207L284 206M750 206L751 207L750 206M567 207L568 208L567 207M573 214L574 215L573 214z"/>
<path style="fill:#0101ff; stroke:none;" d="M755 215L756 216L755 215z"/>
<path style="fill:#056468; stroke:none;" d="M260 237L261 238L260 237M590 237L591 238L590 237M766 238L767 239L766 238M593 242L594 243L593 242M254 247L255 248L254 247M771 250L772 251L771 250M26 255L27 256L26 255M773 255L774 256L773 255M405 258L406 259L405 258z"/>
<path style="fill:#0101ff; stroke:none;" d="M247 261L248 262L247 261z"/>
<path style="fill:#056468; stroke:none;" d="M603 262L604 263L603 262z"/>
<path style="fill:#0101ff; stroke:none;" d="M776 263L777 264L776 263z"/>
<path style="fill:#056468; stroke:none;" d="M470 266L471 267L470 266z"/>
<path style="fill:#0101ff; stroke:none;" d="M606 269L607 270L606 269z"/>
<path style="fill:#056468; stroke:none;" d="M488 279L489 280L488 279z"/>
<path style="fill:#0101ff; stroke:none;" d="M489 280L490 281L489 280z"/>
<path style="fill:#056468; stroke:none;" d="M782 281L783 282L782 281M361 287L362 288L361 287M495 287L496 288L495 287M13 295L14 296L13 295z"/>
<path style="fill:#0101ff; stroke:none;" d="M786 295L787 296L786 295M354 297L355 298L354 297z"/>
<path style="fill:#056468; stroke:none;" d="M353 299L354 300L353 299z"/>
<path style="fill:#0101ff; stroke:none;" d="M348 309L349 310L348 309z"/>
<path style="fill:#056468; stroke:none;" d="M231 315L232 316L231 315M514 335L515 336L514 335M4 337L5 338L4 337z"/>
<path style="fill:#0101ff; stroke:none;" d="M510 368L511 369L510 368z"/>
<path style="fill:#056468; stroke:none;" d="M618 370L619 371L618 370z"/>
<path style="fill:#0101ff; stroke:none;" d="M0 373L1 374L0 373M507 376L508 377L507 376M506 378L507 379L506 378z"/>
<path style="fill:#056468; stroke:none;" d="M497 393L498 394L497 393z"/>
<path style="fill:#0101ff; stroke:none;" d="M493 398L494 399L493 398z"/>
<path style="fill:#056468; stroke:none;" d="M486 405L487 406L486 405z"/>
<path style="fill:#0101ff; stroke:none;" d="M471 416L472 417L471 416M602 425L603 426L602 425M799 426L800 427L799 426z"/>
<path style="fill:#010101; stroke:none;" d="M0 427L0 800L374 800L374 799C346.551 799 318.356 792.751 292 785.424C181.628 754.744 87.8069 675.374 38.4861 572C24.4004 542.477 13.867 511.084 7.44907 479C5.19825 467.748 3.51869 456.389 2.15509 445C1.48527 439.405 2.14807 432.119 0 427M799 427C799 466.472 787.348 507.397 773.424 544C730.376 657.167 634.32 746.146 519 782.191C489.424 791.436 457.111 799 426 799L426 800L800 800L800 536L800 460L799 427z"/>
<path style="fill:#056468; stroke:none;" d="M439 429L440 430L439 429M591 446L592 447L591 446M795 462L796 463L795 462M576 467L577 468L576 467M571 473L572 474L571 473M7 479L8 480L7 479M9 488L10 489L9 488M786 504L787 505L786 504M533 507L534 508L533 507z"/>
<path style="fill:#0101ff; stroke:none;" d="M785 508L786 509L785 508z"/>
<path style="fill:#056468; stroke:none;" d="M527 511L528 512L527 511M522 514L523 515L522 514z"/>
<path style="fill:#0101ff; stroke:none;" d="M16 515L17 516L16 515M783 515L784 516L783 515z"/>
<path style="fill:#056468; stroke:none;" d="M17 518L18 519L17 518M782 518L783 519L782 518M513 519L514 520L513 519M781 521L782 522L781 521M780 524L781 525L780 524M779 527L780 528L779 527M433 528L434 529L433 528M778 530L779 531L778 530z"/>
<path style="fill:#032f31; stroke:none;" d="M510 534L514 532L510 534z"/>
<path style="fill:#056468; stroke:none;" d="M514 531L515 532L514 531z"/>
<path style="fill:#010101; stroke:none;" d="M487 560L487 562L496 564C492.709 572.022 488.781 579.77 486.004 588C482.514 598.341 483.328 607.017 472 612L475 591L464 594L459 581C449.518 583.806 449.704 597.273 446.298 604.985C444.493 609.072 440.493 611.487 437 614C437 610.669 436.932 607.33 437.015 604C437.083 601.247 437.548 598.685 438.116 596C438.71 593.192 438.937 584.465 433.605 588.647C425.955 594.648 425.479 608.711 413 608L430 585L430 584C421.057 579.302 408.165 587.807 405.573 597C404.545 600.647 406.561 604.496 405.458 607.957C404.504 610.952 400.362 613.936 397.137 613.187C388.595 611.202 401.674 591.348 400.59 586.004C399.416 580.215 394.823 580.925 391.694 577.273C389.168 574.325 393.261 569.454 389.643 567.043C386.259 564.789 382.165 567.924 380.894 571.044C378.828 576.113 381.116 581.766 379.826 587C378.193 593.631 373.664 598.824 371 605L372 605L386 586C383.092 594.597 378.102 603.601 380.561 613C384.909 629.621 402.333 617.045 408 609L409 609C413.404 613.445 419.32 611.102 424 608C425.363 623.133 438.419 619.474 446 611C454.012 623.329 461.348 602.906 466 598C464.56 602.429 460.56 610.073 462.757 614.682C467.004 623.592 481.022 609.262 484 606C488.946 618.729 500.879 615.699 509 608C511.4 619.754 526.745 616.541 530 607C537.626 609.121 542.271 607.555 547 601C541.009 603.516 537.774 606.833 531 605L533 588L527 591C511.227 585.984 512.174 614.425 499.149 610.15C492.538 607.98 500.574 597.347 502.1 594C508.763 579.384 509.212 563.636 525 557L525 556L517 556C519.684 552.229 523.539 546.936 522.643 542C521.946 538.162 516.837 530.82 512.212 533.086C505.19 536.528 503.98 550 499.034 555.682C496.341 558.776 490.68 558.447 487 560z"/>
<path style="fill:#056468; stroke:none;" d="M516 532L517 533L516 532M517 533L518 534L517 533M777 533L778 534L777 533M509 534L510 535L509 534M518 534L519 535L518 534z"/>
<path style="fill:#032f31; stroke:none;" d="M509 535L510 536L509 535z"/>
<path style="fill:#056468; stroke:none;" d="M508 536L509 537L508 536z"/>
<path style="fill:#032f31; stroke:none;" d="M519 536L520 537L519 536M508 537L509 538L508 537z"/>
<path style="fill:#056468; stroke:none;" d="M520 537L521 538L520 537M521 538L522 539L521 538z"/>
<path style="fill:#032f31; stroke:none;" d="M507 539L508 540L507 539z"/>
<path style="fill:#056468; stroke:none;" d="M522 539L523 540L522 539M506 540L507 541L506 540z"/>
<path style="fill:#032f31; stroke:none;" d="M506 541L507 542L506 541z"/>
<path style="fill:#056468; stroke:none;" d="M523 541L524 542L523 541M774 541L775 542L774 541M505 542L506 543L505 542z"/>
<path style="fill:#032f31; stroke:none;" d="M523.333 542.667L523.667 543.333L523.333 542.667M505 543L506 544L505 543z"/>
<path style="fill:#056468; stroke:none;" d="M504 544L505 545L504 544M523 544L524 545L523 544z"/>
<path style="fill:#032f31; stroke:none;" d="M504 545L505 546L504 545z"/>
<path style="fill:#056468; stroke:none;" d="M503 546L504 547L503 546z"/>
<path style="fill:#032f31; stroke:none;" d="M522 546L523 547L522 546M503 547L504 548L503 547z"/>
<path style="fill:#056468; stroke:none;" d="M522 547L523 548L522 547M502 548L503 549L502 548z"/>
<path style="fill:#032f31; stroke:none;" d="M521 548L522 549L521 548M502 549L503 550L502 549z"/>
<path style="fill:#0101ff; stroke:none;" d="M771 549L772 550L771 549z"/>
<path style="fill:#056468; stroke:none;" d="M501 550L502 551L501 550z"/>
<path style="fill:#032f31; stroke:none;" d="M520 550L521 551L520 550M501 551L502 552L501 551z"/>
<path style="fill:#056468; stroke:none;" d="M500 552L501 553L500 552z"/>
<path style="fill:#032f31; stroke:none;" d="M519 552L520 553L519 552M500 553L501 554L500 553z"/>
<path style="fill:#056468; stroke:none;" d="M519 553L520 554L519 553M499 554L500 555L499 554M518 554L519 555L518 554z"/>
<path style="fill:#032f31; stroke:none;" d="M499 555L500 556L499 555M517 555L518 556L517 555z"/>
<path style="fill:#056468; stroke:none;" d="M525 556L526 557L525 556M493 557L493 558L497 558L493 557z"/>
<path style="fill:#032f31; stroke:none;" d="M497.667 557.333L498.333 557.667L497.667 557.333M524 557L525 558L524 557z"/>
<path style="fill:#056468; stroke:none;" d="M489 558L490 559L489 558z"/>
<path style="fill:#032f31; stroke:none;" d="M490 558L491 559L490 558M520.667 558.333L521.333 558.667L520.667 558.333M487 559L488 560L487 559M519 559L520 560L519 559M486.333 560.667L486.667 561.333L486.333 560.667M516 560L517 561L516 560z"/>
<path style="fill:#056468; stroke:none;" d="M517 560L518 561L517 560z"/>
<path style="fill:#032f31; stroke:none;" d="M514 561L515 562L514 561z"/>
<path style="fill:#056468; stroke:none;" d="M515 561L516 562L515 561z"/>
<path style="fill:#032f31; stroke:none;" d="M488 562L489 563L488 562M513 562L514 563L513 562z"/>
<path style="fill:#056468; stroke:none;" d="M489 563L490 564L489 563z"/>
<path style="fill:#032f31; stroke:none;" d="M490.667 563.333L491.333 563.667L490.667 563.333z"/>
<path style="fill:#056468; stroke:none;" d="M513 563L514 564L513 563M493.667 564.333L494.333 564.667L493.667 564.333z"/>
<path style="fill:#032f31; stroke:none;" d="M495.333 564.667L495.667 565.333L495.333 564.667M386 565L386 566L389 566L386 565z"/>
<path style="fill:#056468; stroke:none;" d="M389 565L390 566L389 565z"/>
<path style="fill:#032f31; stroke:none;" d="M512.333 565.667L512.667 566.333L512.333 565.667M383.667 566.333L384.333 566.667L383.667 566.333M390 566L391 567L390 566M382 567L383 568L382 567M391 567L392 568L391 567M494 567L495 568L494 567z"/>
<path style="fill:#056468; stroke:none;" d="M512 567L513 568L512 567M381 568L382 569L381 568M493 569L494 570L493 569z"/>
<path style="fill:#032f31; stroke:none;" d="M511.333 569.667L511.667 570.333L511.333 569.667z"/>
<path style="fill:#056468; stroke:none;" d="M380 570L381 571L380 570z"/>
<path style="fill:#032f31; stroke:none;" d="M391.333 570.667L391.667 571.333L391.333 570.667M380 571L381 572L380 571z"/>
<path style="fill:#056468; stroke:none;" d="M492 571L493 572L492 571M511 571L512 572L511 571z"/>
<path style="fill:#0101ff; stroke:none;" d="M38 572L39 573L38 572z"/>
<path style="fill:#056468; stroke:none;" d="M379 572L380 573L379 572M391 572L392 573L391 572z"/>
<path style="fill:#032f31; stroke:none;" d="M492 572L493 573L492 572M510.333 572.667L510.667 573.333L510.333 572.667M379 573L379 579L380 579L379 573z"/>
<path style="fill:#056468; stroke:none;" d="M491 573L492 574L491 573z"/>
<path style="fill:#0101ff; stroke:none;" d="M39 574L40 575L39 574z"/>
<path style="fill:#032f31; stroke:none;" d="M390.333 574.667L390.667 575.333L390.333 574.667M491 574L492 575L491 574z"/>
<path style="fill:#0101ff; stroke:none;" d="M760 574L761 575L760 574z"/>
<path style="fill:#056468; stroke:none;" d="M490 575L491 576L490 575z"/>
<path style="fill:#032f31; stroke:none;" d="M509 575L510 576L509 575z"/>
<path style="fill:#056468; stroke:none;" d="M390 576L392 578L390 576z"/>
<path style="fill:#032f31; stroke:none;" d="M490 576L491 577L490 576z"/>
<path style="fill:#056468; stroke:none;" d="M509 576L510 577L509 576z"/>
<path style="fill:#032f31; stroke:none;" d="M390 577L391 578L390 577M392.667 578.333L393.333 578.667L392.667 578.333z"/>
<path style="fill:#056468; stroke:none;" d="M394 578L395 579L394 578z"/>
<path style="fill:#032f31; stroke:none;" d="M489 578L490 579L489 578M508 578L509 579L508 578z"/>
<path style="fill:#056468; stroke:none;" d="M758 578L759 579L758 578M379 579L380 580L379 579z"/>
<path style="fill:#032f31; stroke:none;" d="M396 579L397 580L396 579z"/>
<path style="fill:#056468; stroke:none;" d="M398 580L399 581L398 580z"/>
<path style="fill:#032f31; stroke:none;" d="M456 580L456 581L459 581L456 580z"/>
<path style="fill:#056468; stroke:none;" d="M488 580L489 581L488 580z"/>
<path style="fill:#032f31; stroke:none;" d="M507 580L508 581L507 580M380 581L381 582L380 581z"/>
<path style="fill:#056468; stroke:none;" d="M424 581L425 582L424 581z"/>
<path style="fill:#032f31; stroke:none;" d="M425.667 581.333L426.333 581.667L425.667 581.333M455 581L456 582L455 581z"/>
<path style="fill:#056468; stroke:none;" d="M459 581L460 582L459 581z"/>
<path style="fill:#032f31; stroke:none;" d="M488 581L489 582L488 581z"/>
<path style="fill:#056468; stroke:none;" d="M507 581L508 582L507 581z"/>
<path style="fill:#032f31; stroke:none;" d="M399 582L400 583L399 582z"/>
<path style="fill:#056468; stroke:none;" d="M420 582L421 583L420 582z"/>
<path style="fill:#032f31; stroke:none;" d="M421.667 582.333L422.333 582.667L421.667 582.333M428 582L429 583L428 582M454 582L455 583L454 582M459 582L460 583L459 582z"/>
<path style="fill:#056468; stroke:none;" d="M487 582L488 583L487 582z"/>
<path style="fill:#032f31; stroke:none;" d="M506 582L507 583L506 582z"/>
<path style="fill:#056468; stroke:none;" d="M380 583L381 584L380 583M400 583L401 584L400 583M418 583L419 584L418 583z"/>
<path style="fill:#032f31; stroke:none;" d="M419 583L420 584L419 583M429 583L430 584L429 583z"/>
<path style="fill:#056468; stroke:none;" d="M453 583L454 584L453 583M460 583L461 584L460 583z"/>
<path style="fill:#032f31; stroke:none;" d="M487 583L488 584L487 583z"/>
<path style="fill:#056468; stroke:none;" d="M506 583L507 584L506 583z"/>
<path style="fill:#032f31; stroke:none;" d="M380 584L381 585L380 584M400 584L401 585L400 584M416 584L417 585L416 584M453 584L454 585L453 584M460 584L461 585L460 584z"/>
<path style="fill:#056468; stroke:none;" d="M414 585L415 586L414 585z"/>
<path style="fill:#032f31; stroke:none;" d="M429 585L430 586L429 585z"/>
<path style="fill:#056468; stroke:none;" d="M452 585L453 586L452 585M486 585L487 586L486 585z"/>
<path style="fill:#032f31; stroke:none;" d="M505 585L506 586L505 585z"/>
<path style="fill:#056468; stroke:none;" d="M379 586L380 587L379 586M384.667 586.333L385.333 586.667L384.667 586.333M401 586L401 589L402 589L401 586M413 586L414 587L413 586z"/>
<path style="fill:#032f31; stroke:none;" d="M428 586L429 587L428 586M452 586L453 587L452 586z"/>
<path style="fill:#056468; stroke:none;" d="M461 586L462 587L461 586z"/>
<path style="fill:#032f31; stroke:none;" d="M486 586L487 587L486 586z"/>
<path style="fill:#056468; stroke:none;" d="M505 586L506 587L505 586z"/>
<path style="fill:#032f31; stroke:none;" d="M379.333 587.667L379.667 588.333L379.333 587.667M383 587L384 588L383 587M385 587L386 588L385 587M412 587L413 588L412 587M427 587L428 588L427 587z"/>
<path style="fill:#056468; stroke:none;" d="M433 587L434 588L433 587z"/>
<path style="fill:#032f31; stroke:none;" d="M437 587L437 588L439 590L440 590L437 587z"/>
<path style="fill:#056468; stroke:none;" d="M439 587L440 588L439 587M451 587L452 588L451 587z"/>
<path style="fill:#032f31; stroke:none;" d="M504 587L505 588L504 587M529 587L529 588L532 588L529 587z"/>
<path style="fill:#056468; stroke:none;" d="M532 587L533 588L532 587z"/>
<path style="fill:#032f31; stroke:none;" d="M411 588L412 589L411 588z"/>
<path style="fill:#056468; stroke:none;" d="M427 588L428 589L427 588M462 588L463 589L462 588M485 588L486 589L485 588M504 588L505 589L504 588M527 588L528 589L527 588M382 589L383 590L382 589M384 589L385 590L384 589z"/>
<path style="fill:#032f31; stroke:none;" d="M410 589L411 590L410 589M432 589L433 590L432 589M462 589L463 590L462 589M485 589L486 590L485 589M520.667 589.333L521.333 589.667L520.667 589.333M523 589L524 590L523 589z"/>
<path style="fill:#056468; stroke:none;" d="M526 589L527 590L526 589z"/>
<path style="fill:#032f31; stroke:none;" d="M533.333 589.667L533.667 590.333L533.333 589.667z"/>
<path style="fill:#056468; stroke:none;" d="M378 590L379 591L378 590z"/>
<path style="fill:#032f31; stroke:none;" d="M381 590L382 591L381 590M384 590L385 591L384 590M409 590L410 591L409 590M426 590L427 591L426 590z"/>
<path style="fill:#056468; stroke:none;" d="M431 590L432 591L431 590M439 590L439 593L440 593L439 590M450 590L451 591L450 590M469 590L470 591L469 590z"/>
<path style="fill:#032f31; stroke:none;" d="M470 590L470 591L475 591L470 590M503 590L504 591L503 590z"/>
<path style="fill:#056468; stroke:none;" d="M518 590L519 591L518 590z"/>
<path style="fill:#032f31; stroke:none;" d="M526 590L527 591L526 590M378 591L379 592L378 591z"/>
<path style="fill:#056468; stroke:none;" d="M381 591L382 592L381 591M383 591L384 592L383 591z"/>
<path style="fill:#032f31; stroke:none;" d="M400 591L401 592L400 591M408 591L409 592L408 591z"/>
<path style="fill:#056468; stroke:none;" d="M426 591L427 592L426 591z"/>
<path style="fill:#032f31; stroke:none;" d="M431 591L432 592L431 591M450.333 591.667L450.667 592.333L450.333 591.667z"/>
<path style="fill:#056468; stroke:none;" d="M463 591L464 592L463 591z"/>
<path style="fill:#032f31; stroke:none;" d="M468 591L469 592L468 591z"/>
<path style="fill:#056468; stroke:none;" d="M475 591L476 592L475 591M484 591L485 592L484 591M503 591L504 592L503 591M517 591L518 592L517 591z"/>
<path style="fill:#032f31; stroke:none;" d="M380 592L381 593L380 592M383 592L384 593L383 592z"/>
<path style="fill:#056468; stroke:none;" d="M407 592L408 593L407 592z"/>
<path style="fill:#032f31; stroke:none;" d="M425 592L426 593L425 592z"/>
<path style="fill:#056468; stroke:none;" d="M430 592L431 593L430 592z"/>
<path style="fill:#032f31; stroke:none;" d="M463 592L464 593L463 592z"/>
<path style="fill:#056468; stroke:none;" d="M466 592L467 593L466 592z"/>
<path style="fill:#032f31; stroke:none;" d="M475.333 592.667L475.667 593.333L475.333 592.667M484 592L485 593L484 592z"/>
<path style="fill:#056468; stroke:none;" d="M516 592L517 593L516 592z"/>
<path style="fill:#032f31; stroke:none;" d="M525 592L524 599L525 599L525 592M377 593L378 594L377 593M399 593L400 594L399 593z"/>
<path style="fill:#056468; stroke:none;" d="M406 593L407 594L406 593z"/>
<path style="fill:#032f31; stroke:none;" d="M424 593L425 594L424 593z"/>
<path style="fill:#056468; stroke:none;" d="M449 593L450 594L449 593M464 593L465 594L464 593z"/>
<path style="fill:#032f31; stroke:none;" d="M465 593L466 594L465 593M502 593L503 594L502 593z"/>
<path style="fill:#056468; stroke:none;" d="M515 593L516 594L515 593M525 593L526 594L525 593M750 593L751 594L750 593M376 594L377 595L376 594M379 594L380 595L379 594M382 594L383 595L382 594M399 594L400 595L399 594M429 594L430 595L429 594z"/>
<path style="fill:#032f31; stroke:none;" d="M438.333 594.667L438.667 595.333L438.333 594.667M449 594L450 595L449 594z"/>
<path style="fill:#056468; stroke:none;" d="M475 594L475 597L476 597L475 594M483 594L484 595L483 594M502 594L503 595L502 594z"/>
<path style="fill:#077d83; stroke:none;" d="M525 594L525 607L526 607L525 594z"/>
<path style="fill:#032f31; stroke:none;" d="M376 595L377 596L376 595M378 595L379 596L378 595M382 595L383 596L382 595M398 595L399 596L398 595z"/>
<path style="fill:#056468; stroke:none;" d="M405 595L406 596L405 595M423 595L424 596L423 595z"/>
<path style="fill:#032f31; stroke:none;" d="M483.333 595.667L483.667 596.333L483.333 595.667M501 595L502 596L501 595M514 595L515 596L514 595M375 596L376 597L375 596z"/>
<path style="fill:#056468; stroke:none;" d="M381 596L382 597L381 596M398 596L399 597L398 596z"/>
<path style="fill:#032f31; stroke:none;" d="M405 596L406 597L405 596z"/>
<path style="fill:#056468; stroke:none;" d="M422 596L423 597L422 596z"/>
<path style="fill:#032f31; stroke:none;" d="M428 596L429 597L428 596z"/>
<path style="fill:#056468; stroke:none;" d="M438 596L439 597L438 596M448 596L449 597L448 596M501 596L502 597L501 596z"/>
<path style="fill:#032f31; stroke:none;" d="M513 596L514 597L513 596z"/>
<path style="fill:#056468; stroke:none;" d="M374 597L375 598L374 597M377 597L378 598L377 597z"/>
<path style="fill:#032f31; stroke:none;" d="M381 597L382 598L381 597M397 597L398 598L397 597M420 597L421 598L420 597z"/>
<path style="fill:#056468; stroke:none;" d="M427 597L428 598L427 597z"/>
<path style="fill:#032f31; stroke:none;" d="M448 597L449 598L448 597M466 597L467 598L466 597M500 597L501 598L500 597z"/>
<path style="fill:#056468; stroke:none;" d="M512 597L513 598L512 597z"/>
<path style="fill:#032f31; stroke:none;" d="M526.333 597.667L526.667 598.333L526.333 597.667M530 597L531 598L530 597M533 597L533 600L534 600L533 597M374 598L375 599L374 598M376 598L377 599L376 598z"/>
<path style="fill:#056468; stroke:none;" d="M397 598L398 599L397 598M404 598L405 599L404 598z"/>
<path style="fill:#032f31; stroke:none;" d="M427 598L428 599L427 598M437 598L438 599L437 598z"/>
<path style="fill:#056468; stroke:none;" d="M447 598L448 599L447 598M465 598L464 602L465 602L465 598z"/>
<path style="fill:#032f31; stroke:none;" d="M474 598L475 599L474 598z"/>
<path style="fill:#056468; stroke:none;" d="M482 598L482 604L483 604L482 598z"/>
<path style="fill:#032f31; stroke:none;" d="M499 598L500 599L499 598M373 599L374 600L373 599z"/>
<path style="fill:#056468; stroke:none;" d="M380 599L381 600L380 599z"/>
<path style="fill:#032f31; stroke:none;" d="M404 599L404 602L405 602L404 599z"/>
<path style="fill:#056468; stroke:none;" d="M418 599L419 600L418 599M426 599L427 600L426 599M437.333 599.667L437.667 600.333L437.333 599.667z"/>
<path style="fill:#032f31; stroke:none;" d="M447.333 599.667L447.667 600.333L447.333 599.667M465 599L466 600L465 599z"/>
<path style="fill:#056468; stroke:none;" d="M474 599L475 600L474 599M511 599L512 600L511 599M375 600L376 601L375 600z"/>
<path style="fill:#032f31; stroke:none;" d="M380.333 600.667L380.667 601.333L380.333 600.667M396.333 600.667L396.667 601.333L396.333 600.667M417 600L418 601L417 600z"/>
<path style="fill:#077d83; stroke:none;" d="M464 600L465 601L464 600z"/>
<path style="fill:#032f31; stroke:none;" d="M473.333 600.667L473.667 601.333L473.333 600.667z"/>
<path style="fill:#056468; stroke:none;" d="M498.333 600.667L498.667 601.333L498.333 600.667z"/>
<path style="fill:#032f31; stroke:none;" d="M527 600L528 601L527 600z"/>
<path style="fill:#056468; stroke:none;" d="M533 600L534 601L533 600M545 600L546 601L545 600z"/>
<path style="fill:#032f31; stroke:none;" d="M546 600L547 601L546 600z"/>
<path style="fill:#056468; stroke:none;" d="M547 600L548 601L547 600z"/>
<path style="fill:#032f31; stroke:none;" d="M372 601L373 602L372 601M374 601L375 602L374 601M425 601L426 602L425 601M462 601L463 602L462 601z"/>
<path style="fill:#056468; stroke:none;" d="M510 601L511 602L510 601M525 601L526 602L525 601M527 601L528 602L527 601z"/>
<path style="fill:#032f31; stroke:none;" d="M532 601L533 602L532 601z"/>
<path style="fill:#056468; stroke:none;" d="M544 601L545 602L544 601z"/>
<path style="fill:#0101ff; stroke:none;" d="M54 602L55 603L54 602z"/>
<path style="fill:#056468; stroke:none;" d="M371 602L372 603L371 602z"/>
<path style="fill:#032f31; stroke:none;" d="M373 602L374 603L373 602z"/>
<path style="fill:#056468; stroke:none;" d="M396 602L397 603L396 602M404 602L405 603L404 602M416 602L417 603L416 602z"/>
<path style="fill:#032f31; stroke:none;" d="M424 602L425 603L424 602z"/>
<path style="fill:#056468; stroke:none;" d="M446.333 602.667L446.667 603.333L446.333 602.667z"/>
<path style="fill:#032f31; stroke:none;" d="M461 602L462 603L461 602M464 602L465 603L464 602z"/>
<path style="fill:#056468; stroke:none;" d="M473 602L473 605L474 605L473 602z"/>
<path style="fill:#032f31; stroke:none;" d="M510 602L511 603L510 602M525 602L525 605L526 605L525 602z"/>
<path style="fill:#056468; stroke:none;" d="M532 602L533 603L532 602M543 602L544 603L543 602z"/>
<path style="fill:#032f31; stroke:none;" d="M546 602L547 603L546 602z"/>
<path style="fill:#0101ff; stroke:none;" d="M745 602L746 603L745 602z"/>
<path style="fill:#032f31; stroke:none;" d="M371 603L372 604L371 603M395 603L396 604L395 603M415 603L416 604L415 603z"/>
<path style="fill:#056468; stroke:none;" d="M423 603L424 604L423 603M463 603L464 604L463 603z"/>
<path style="fill:#032f31; stroke:none;" d="M497 603L498 604L497 603z"/>
<path style="fill:#056468; stroke:none;" d="M527 603L528 604L527 603z"/>
<path style="fill:#032f31; stroke:none;" d="M542 603L543 604L542 603M545 603L546 604L545 603z"/>
<path style="fill:#056468; stroke:none;" d="M370 604L371 605L370 604M372 604L373 605L372 604M395 604L396 605L395 604M405.333 604.667L405.667 605.333L405.333 604.667M422 604L423 605L422 604M437 604L437 607L438 607L437 604z"/>
<path style="fill:#032f31; stroke:none;" d="M446.333 604.667L446.667 605.333L446.333 604.667M460 604L461 605L460 604M463.333 604.667L463.667 605.333L463.333 604.667M482 604L483 605L482 604M496 604L497 605L496 604z"/>
<path style="fill:#056468; stroke:none;" d="M509 604L510 605L509 604z"/>
<path style="fill:#032f31; stroke:none;" d="M527 604L528 605L527 604M531 604L532 605L531 604z"/>
<path style="fill:#056468; stroke:none;" d="M540 604L541 605L540 604M544 604L545 605L544 604z"/>
<path style="fill:#032f31; stroke:none;" d="M394 605L395 606L394 605z"/>
<path style="fill:#056468; stroke:none;" d="M414 605L415 606L414 605z"/>
<path style="fill:#032f31; stroke:none;" d="M421 605L422 606L421 605z"/>
<path style="fill:#056468; stroke:none;" d="M460 605L461 606L460 605z"/>
<path style="fill:#032f31; stroke:none;" d="M472 605L473 606L472 605M481 605L482 606L481 605z"/>
<path style="fill:#056468; stroke:none;" d="M496 605L497 606L496 605z"/>
<path style="fill:#032f31; stroke:none;" d="M509 605L510 606L509 605z"/>
<path style="fill:#056468; stroke:none;" d="M525 605L526 606L525 605z"/>
<path style="fill:#032f31; stroke:none;" d="M532 605L533 606L532 605z"/>
<path style="fill:#056468; stroke:none;" d="M533 605L534 606L533 605M538 605L539 606L538 605z"/>
<path style="fill:#032f31; stroke:none;" d="M539 605L540 606L539 605z"/>
<path style="fill:#056468; stroke:none;" d="M543 605L544 606L543 605z"/>
<path style="fill:#032f31; stroke:none;" d="M380 606L381 607L380 606z"/>
<path style="fill:#056468; stroke:none;" d="M394 606L395 607L394 606z"/>
<path style="fill:#032f31; stroke:none;" d="M413.333 606.667L413.667 607.333L413.333 606.667z"/>
<path style="fill:#056468; stroke:none;" d="M419 606L420 607L419 606z"/>
<path style="fill:#032f31; stroke:none;" d="M420 606L421 607L420 606M459 606L460 607L459 606z"/>
<path style="fill:#056468; stroke:none;" d="M472 606L473 607L472 606M480 606L481 607L480 606M483 606L484 607L483 606z"/>
<path style="fill:#032f31; stroke:none;" d="M508 606L509 607L508 606M524 606L524 608L526 608L524 606M526 606L527 607L526 606M535.667 606.333L536.333 606.667L535.667 606.333z"/>
<path style="fill:#056468; stroke:none;" d="M542 606L543 607L542 606z"/>
<path style="fill:#032f31; stroke:none;" d="M406.333 607.667L406.667 608.333L406.333 607.667z"/>
<path style="fill:#056468; stroke:none;" d="M417 607L418 608L417 607z"/>
<path style="fill:#032f31; stroke:none;" d="M418 607L419 608L418 607M445 607L446 608L445 607z"/>
<path style="fill:#056468; stroke:none;" d="M462 607L463 608L462 607z"/>
<path style="fill:#032f31; stroke:none;" d="M471.333 607.667L471.667 608.333L471.333 607.667z"/>
<path style="fill:#056468; stroke:none;" d="M479 607L480 608L479 607z"/>
<path style="fill:#032f31; stroke:none;" d="M482 607L483 608L482 607M507 607L508 608L507 607z"/>
<path style="fill:#056468; stroke:none;" d="M530.667 607.333L531.333 607.667L530.667 607.333z"/>
<path style="fill:#032f31; stroke:none;" d="M540 607L541 608L540 607M414 608L414 609L417 609L414 608M423 608L424 609L423 608M444 608L445 609L444 608M458.333 608.667L458.667 609.333L458.333 608.667M462.333 608.667L462.667 609.333L462.333 608.667M478 608L479 609L478 608M481 608L482 609L481 608z"/>
<path style="fill:#056468; stroke:none;" d="M484 608L485 609L484 608M505 608L506 609L505 608z"/>
<path style="fill:#032f31; stroke:none;" d="M508 608L509 609L508 608M534.667 608.333L535.333 608.667L534.667 608.333M538 608L539 609L538 608z"/>
<path style="fill:#056468; stroke:none;" d="M539 608L540 609L539 608M379.333 609.667L379.667 610.333L379.333 609.667z"/>
<path style="fill:#032f31; stroke:none;" d="M393 609L394 610L393 609z"/>
<path style="fill:#056468; stroke:none;" d="M405 609L406 610L405 609z"/>
<path style="fill:#032f31; stroke:none;" d="M408 609L409 610L408 609z"/>
<path style="fill:#056468; stroke:none;" d="M422 609L424 611L424 609L422 609M442 609L443 610L442 609z"/>
<path style="fill:#032f31; stroke:none;" d="M443 609L444 610L443 609z"/>
<path style="fill:#056468; stroke:none;" d="M471 609L472 610L471 609z"/>
<path style="fill:#032f31; stroke:none;" d="M477 609L478 610L477 609M485 609L486 610L485 609M496 609L497 610L496 609z"/>
<path style="fill:#056468; stroke:none;" d="M503 609L504 610L503 609z"/>
<path style="fill:#032f31; stroke:none;" d="M504 609L505 610L504 609M507 609L508 610L507 609z"/>
<path style="fill:#056468; stroke:none;" d="M529 609L530 610L529 609z"/>
<path style="fill:#032f31; stroke:none;" d="M404 610L405 611L404 610z"/>
<path style="fill:#056468; stroke:none;" d="M407 610L408 611L407 610z"/>
<path style="fill:#032f31; stroke:none;" d="M409 610L410 611L409 610M420 610L421 611L420 610z"/>
<path style="fill:#056468; stroke:none;" d="M437.333 610.667L437.667 611.333L437.333 610.667M441 610L442 611L441 610M458 610L459 611L458 610z"/>
<path style="fill:#032f31; stroke:none;" d="M471 610L472 611L471 610z"/>
<path style="fill:#056468; stroke:none;" d="M475 610L476 611L475 610M480 610L481 611L480 610M485 610L486 611L485 610z"/>
<path style="fill:#032f31; stroke:none;" d="M498 610L499 611L498 610z"/>
<path style="fill:#056468; stroke:none;" d="M501 610L502 611L501 610z"/>
<path style="fill:#032f31; stroke:none;" d="M502 610L503 611L502 610z"/>
<path style="fill:#056468; stroke:none;" d="M506 610L507 611L506 610M394 611L395 612L394 611z"/>
<path style="fill:#032f31; stroke:none;" d="M403 611L404 612L403 611z"/>
<path style="fill:#056468; stroke:none;" d="M406 611L407 612L406 611z"/>
<path style="fill:#032f31; stroke:none;" d="M410 611L411 612L410 611M415 611L415 612L418 612L415 611z"/>
<path style="fill:#056468; stroke:none;" d="M418 611L419 612L418 611z"/>
<path style="fill:#032f31; stroke:none;" d="M440 611L441 612L440 611M445 611L446 612L445 611M472.667 611.333L473.333 611.667L472.667 611.333M478 611L479 612L478 611z"/>
<path style="fill:#056468; stroke:none;" d="M486 611L487 612L486 611M495.667 611.333L496.333 611.667L495.667 611.333z"/>
<path style="fill:#032f31; stroke:none;" d="M496 613L499 613L498 611L496 613z"/>
<path style="fill:#056468; stroke:none;" d="M505 611L506 612L505 611z"/>
<path style="fill:#032f31; stroke:none;" d="M509 611L510 612L509 611z"/>
<path style="fill:#056468; stroke:none;" d="M528 611L529 612L528 611z"/>
<path style="fill:#032f31; stroke:none;" d="M394 612L395 613L394 612z"/>
<path style="fill:#056468; stroke:none;" d="M401 612L402 613L401 612z"/>
<path style="fill:#032f31; stroke:none;" d="M405 612L406 613L405 612z"/>
<path style="fill:#056468; stroke:none;" d="M411.667 612.333L412.333 612.667L411.667 612.333z"/>
<path style="fill:#032f31; stroke:none;" d="M424 612L425 613L424 612M439 612L440 613L439 612M444 612L445 613L444 612M446 612L447 613L446 612M457 612L458 613L457 612z"/>
<path style="fill:#056468; stroke:none;" d="M461 612L461 615L462 615L461 612z"/>
<path style="fill:#032f31; stroke:none;" d="M477 612L478 613L477 612M487 612L488 613L487 612M504 612L505 613L504 612z"/>
<path style="fill:#056468; stroke:none;" d="M509 612L510 613L509 612z"/>
<path style="fill:#032f31; stroke:none;" d="M527 612L528 613L527 612M380 613L381 614L380 613M395 613L396 614L395 613z"/>
<path style="fill:#056468; stroke:none;" d="M396 613L396 614L399 614L396 613z"/>
<path style="fill:#032f31; stroke:none;" d="M399 613L400 614L399 613M404 613L405 614L404 613z"/>
<path style="fill:#056468; stroke:none;" d="M424 613L425 614L424 613M437 613L438 614L437 613z"/>
<path style="fill:#032f31; stroke:none;" d="M443 613L444 614L443 613z"/>
<path style="fill:#056468; stroke:none;" d="M446 613L447 614L446 613M457 613L458 614L457 613z"/>
<path style="fill:#032f31; stroke:none;" d="M471 613L470 615L471 613M476 613L477 614L476 613z"/>
<path style="fill:#056468; stroke:none;" d="M488 613L489 614L488 613z"/>
<path style="fill:#032f31; stroke:none;" d="M502 613L503 614L502 613z"/>
<path style="fill:#056468; stroke:none;" d="M503 613L504 614L503 613M510 613L511 614L510 613z"/>
<path style="fill:#032f31; stroke:none;" d="M526 613L527 614L526 613z"/>
<path style="fill:#056468; stroke:none;" d="M380 614L381 615L380 614z"/>
<path style="fill:#032f31; stroke:none;" d="M403 614L404 615L403 614z"/>
<path style="fill:#056468; stroke:none;" d="M447 614L448 615L447 614z"/>
<path style="fill:#032f31; stroke:none;" d="M448 614L449 615L448 614z"/>
<path style="fill:#056468; stroke:none;" d="M455 614L456 615L455 614M475 614L476 615L475 614z"/>
<path style="fill:#032f31; stroke:none;" d="M490 614L491 615L490 614M500 614L501 615L500 614z"/>
<path style="fill:#056468; stroke:none;" d="M511 614L512 615L511 614z"/>
<path style="fill:#032f31; stroke:none;" d="M525 614L526 615L525 614M402 615L403 616L402 615M425 615L426 616L425 615z"/>
<path style="fill:#056468; stroke:none;" d="M449 615L450 616L449 615M452.667 615.333L453.333 615.667L452.667 615.333z"/>
<path style="fill:#032f31; stroke:none;" d="M462 615L463 616L462 615z"/>
<path style="fill:#056468; stroke:none;" d="M473 615L474 616L473 615M493 615L493 616L498 616L493 615M513 615L514 616L513 615z"/>
<path style="fill:#032f31; stroke:none;" d="M514.667 615.333L515.333 615.667L514.667 615.333M519 615L519 616L525 616L519 615z"/>
<path style="fill:#056468; stroke:none;" d="M737 615L738 616L737 615M381 616L382 617L381 616z"/>
<path style="fill:#032f31; stroke:none;" d="M401 616L402 617L401 616M426 616L427 617L426 616z"/>
<path style="fill:#056468; stroke:none;" d="M462 616L463 617L462 616z"/>
<path style="fill:#032f31; stroke:none;" d="M471 616L472 617L471 616z"/>
<path style="fill:#056468; stroke:none;" d="M472 616L473 617L472 616z"/>
<path style="fill:#032f31; stroke:none;" d="M382 617L383 618L382 617M400 617L401 618L400 617M439 617L440 618L439 617z"/>
<path style="fill:#056468; stroke:none;" d="M464.667 617.333L465.333 617.667L464.667 617.333z"/>
<path style="fill:#032f31; stroke:none;" d="M466 617L466 618L469 618L466 617z"/>
<path style="fill:#056468; stroke:none;" d="M469 617L470 618L469 617z"/>
<path style="fill:#0101ff; stroke:none;" d="M229 618L230 619L229 618z"/>
<path style="fill:#056468; stroke:none;" d="M399 618L400 619L399 618M428 618L429 619L428 618z"/>
<path style="fill:#032f31; stroke:none;" d="M429 618L430 619L429 618M437 618L438 619L437 618M384 619L385 620L384 619M397 619L398 620L397 619M431 619L431 620L435 620L431 619z"/>
<path style="fill:#056468; stroke:none;" d="M435.667 619.333L436.333 619.667L435.667 619.333M385 620L386 621L385 620z"/>
<path style="fill:#032f31; stroke:none;" d="M395 620L396 621L395 620z"/>
<path style="fill:#056468; stroke:none;" d="M396 620L397 621L396 620M387 621L388 622L387 621z"/>
<path style="fill:#032f31; stroke:none;" d="M388 621L388 622L391 622L388 621M392.667 621.333L393.333 621.667L392.667 621.333z"/>
<path style="fill:#056468; stroke:none;" d="M394 621L395 622L394 621z"/>
<path style="fill:#0101ff; stroke:none;" d="M727 630L728 631L727 630z"/>
<path style="fill:#056468; stroke:none;" d="M337 633L338 634L337 633M235 636L236 637L235 636M238 640L239 641L238 640M715 646L716 647L715 646M324 648L325 649L324 648M258 654L259 655L258 654z"/>
<path style="fill:#0101ff; stroke:none;" d="M309 655L310 656L309 655M708 655L709 656L708 655z"/>
<path style="fill:#056468; stroke:none;" d="M269 656L270 657L269 656z"/>
<path style="fill:#0101ff; stroke:none;" d="M97 662L98 663L97 662z"/>
<path style="fill:#056468; stroke:none;" d="M98 663L99 664L98 663M701 663L702 664L701 663z"/>
<path style="fill:#0101ff; stroke:none;" d="M104 670L105 671L104 670M694 671L695 672L694 671z"/>
<path style="fill:#056468; stroke:none;" d="M106 672L107 673L106 672M693 672L694 673L693 672M123 689L124 690L123 689M676 689L677 690L676 689M124 690L125 691L124 690M675 690L676 691L675 690z"/>
<path style="fill:#0101ff; stroke:none;" d="M126 692L127 693L126 692M673 692L674 693L673 692z"/>
<path style="fill:#056468; stroke:none;" d="M136 701L137 702L136 701M663 701L664 702L663 701M144 708L145 709L144 708M162 722L163 723L162 722M637 722L638 723L637 722M172 729L173 730L172 729M618 735L619 736L618 735z"/>
<path style="fill:#0101ff; stroke:none;" d="M184 737L185 738L184 737z"/>
<path style="fill:#056468; stroke:none;" d="M192 742L193 743L192 742z"/>
<path style="fill:#0101ff; stroke:none;" d="M197 745L198 746L197 745M602 745L603 746L602 745M204 749L205 750L204 749M595 749L596 750L595 749M213 754L214 755L213 754M586 754L587 755L586 754M584 755L585 756L584 755z"/>
<path style="fill:#056468; stroke:none;" d="M217 756L218 757L217 756M582 756L583 757L582 756M219 757L220 758L219 757M580 757L581 758L580 757M221 758L222 759L221 758z"/>
<path style="fill:#0101ff; stroke:none;" d="M572 761L573 762L572 761M549 771L550 772L549 771M536 776L537 777L536 776M284 783L285 784L284 783z"/>
<path style="fill:#056468; stroke:none;" d="M295 786L296 787L295 786z"/>
<path style="fill:#0101ff; stroke:none;" d="M343 796L344 797L343 796M456 796L457 797L456 796z"/>
<path style="fill:#056468; stroke:none;" d="M352 797L353 798L352 797z"/>
</svg>
